<?xml version="1.0" encoding="utf-8"?>
<!-- Generator: Adobe Illustrator 27.5.0, SVG Export Plug-In . SVG Version: 6.00 Build 0)  -->
<svg version="1.1" xmlns="http://www.w3.org/2000/svg" xmlns:xlink="http://www.w3.org/1999/xlink" x="0px" y="0px"
	 viewBox="0 0 500 500" style="enable-background:new 0 0 500 500;" xml:space="preserve">
<g id="Floor">
	<ellipse id="Floor_1_" style="fill:#F5F5F5;" cx="250.854" cy="343.56" rx="211.54" ry="110.653"/>
</g>
<g id="Shadows">
	<path id="Shadow_2_" style="fill:#E0E0E0;" d="M178.319,362.229l11.65,6.726c2.391,1.381,6.269,1.381,8.66,0l113.202-65.356
		c2.392-1.381,2.391-3.619,0-5l-11.651-6.726c-2.392-1.381-6.269-1.38-8.66,0l-113.201,65.356
		C175.927,358.61,175.927,360.849,178.319,362.229z"/>
	<ellipse id="Shadow" style="fill:#E0E0E0;" cx="392.843" cy="356.429" rx="51.748" ry="28.333"/>
	<path id="Shadow_1_" style="fill:#E0E0E0;" d="M73.79,383.842c16.221,7.732,42.52,7.732,58.741,0
		c16.221-7.73,16.221-20.265,0-27.997c-16.221-7.73-42.52-7.73-58.741,0C57.569,363.577,57.569,376.112,73.79,383.842z"/>
</g>
<g id="Device">
	<g id="Device_2_2_">
		<path id="XMLID_63_" style="fill:#455A64;" d="M308.827,61.633c-0.274-2.01-1.888-2.741-3.827-1.614l-106.479,61.467
			c-2.132,1.238-3.868,4.243-3.868,6.71v234.961c0,2.274,1.472,3.309,3.38,2.477c-2.142,0.985-5.269,0.904-7.258-0.244l-4.435-2.554
			c-2.142-1.228-3.878-4.233-3.878-6.71V121.175c0-2.477,1.736-5.482,3.878-6.71l106.468-61.477c2.132-1.239,5.604-1.239,7.745,0
			L305,55.542C306.959,56.679,308.583,59.298,308.827,61.633z"/>
		<path id="XMLID_60_" style="fill:#37474F;" d="M305,60.019l-106.479,61.467c-2.132,1.238-3.868,4.243-3.868,6.71v234.961
			c0,2.467,1.736,3.472,3.868,2.233L305,303.923c2.132-1.238,3.868-4.243,3.868-6.71V62.252
			C308.867,59.785,307.132,58.78,305,60.019z M303.294,275.087c0,2.112-1.482,3.457-3.319,4.513l-96.814,55.894
			c-1.827,1.056-3.32,0.203-3.32-1.919V150.641c0-2.122,1.492-4.69,3.32-5.756l96.814-55.884c1.837-1.066,3.319-0.203,3.319,1.909
			V275.087z"/>
		<path id="XMLID_59_" style="fill:#263238;" d="M198.034,365.634c-2.142,0.985-5.269,0.904-7.258-0.244l-4.435-2.554
			c-2.142-1.238-3.878-4.233-3.878-6.71V121.175c0-1.239,0.437-2.609,1.137-3.827l12.191,7.03c-0.7,1.218-1.137,2.589-1.137,3.817
			v234.961C194.653,365.431,196.125,366.466,198.034,365.634z"/>
		<path id="XMLID_58_" d="M251.76,95.93c1.434-0.828,2.596-0.157,2.596,1.499c0,1.655-1.162,3.669-2.596,4.496
			c-1.434,0.828-2.596,0.157-2.596-1.499C249.164,98.771,250.327,96.758,251.76,95.93z"/>
		<path style="fill:#E6E6E6;" d="M249.949,329.01c-0.668,0-1.289-0.158-1.841-0.477c-1.316-0.76-2.04-2.319-2.04-4.391
			c0-4.051,2.854-8.995,6.363-11.021c1.793-1.035,3.505-1.189,4.822-0.428c1.316,0.759,2.041,2.319,2.041,4.39
			c0,4.051-2.854,8.995-6.363,11.021C251.889,328.707,250.874,329.01,249.949,329.01z M255.408,313.218
			c-0.748,0-1.592,0.259-2.478,0.77c-3.233,1.866-5.863,6.422-5.863,10.155c0,1.699,0.547,2.951,1.54,3.524
			c0.993,0.573,2.35,0.421,3.822-0.428c3.233-1.867,5.863-6.422,5.863-10.155c0-1.699-0.547-2.951-1.541-3.524
			C256.357,313.331,255.904,313.218,255.408,313.218z"/>
		<path id="XMLID_55_" d="M241.74,111.72l20.042-11.572c1.196-0.69,2.165-0.2,2.165,1.095c0,1.295-0.969,2.905-2.165,3.595
			l-20.043,11.571c-1.196,0.69-2.165,0.2-2.165-1.095C239.574,114.02,240.544,112.41,241.74,111.72z"/>
		<path id="XMLID_57_" style="fill:#27DEBF;" d="M303.294,275.087c0,2.112-1.482,3.457-3.319,4.513l-96.814,55.894
			c-1.827,1.056-3.32,0.203-3.32-1.919V150.641c0-2.122,1.492-4.69,3.32-5.756l96.814-55.884c1.837-1.066,3.319-0.203,3.319,1.909
			V275.087z"/>
		<path id="XMLID_76_" style="opacity:0.75;fill:#FFFFFF;" d="M303.294,275.087c0,2.112-1.482,3.457-3.319,4.513l-96.814,55.894
			c-1.827,1.056-3.32,0.203-3.32-1.919V150.641c0-2.122,1.492-4.69,3.32-5.756l96.814-55.884c1.837-1.066,3.319-0.203,3.319,1.909
			V275.087z"/>
		<path id="XMLID_121_" style="fill:#27DEBF;" d="M299.975,89.001l-96.814,55.884c-1.827,1.066-3.32,3.634-3.32,5.756v12.327
			l103.453-59.735V90.909C303.294,88.798,301.812,87.935,299.975,89.001z"/>
		<path id="XMLID_122_" style="fill:#27DEBF;" d="M199.841,320.093v13.482c0,2.122,1.492,2.974,3.32,1.919l96.814-55.894
			c1.837-1.056,3.319-2.401,3.319-4.513v-14.721L199.841,320.093z"/>
		<path id="XMLID_116_" style="opacity:0.15;" d="M208.354,320.303l72.335-41.8c1.674-0.966,3.031-0.183,3.031,1.75v0.036
			c0,1.933-1.357,4.284-3.031,5.25l-72.335,41.8c-1.674,0.966-3.031,0.183-3.031-1.75v-0.036
			C205.323,323.62,206.68,321.27,208.354,320.303z"/>
		<path id="XMLID_120_" style="fill:#455A64;" d="M288.881,272.643v2.132c0,0.478,0.246,0.809,0.549,0.738l3.406-0.792
			c0.303-0.071,0.303,0.099,0,0.378l-3.406,3.14c-0.303,0.279-0.549,0.894-0.549,1.372v2.132c0,0.478,0.235,0.591,0.525,0.252
			l8.089-9.464c0.29-0.339,0.29-0.618,0-0.622l-8.089-0.124C289.116,271.78,288.881,272.164,288.881,272.643z"/>
	</g>
	<g id="Conversation">
		<g id="XMLID_12_">
			<g id="XMLID_78_">
				<g id="XMLID_83_">
					<g id="XMLID_88_">
						<path id="XMLID_89_" style="fill:#E0E0E0;" d="M222.404,196.652l-5.14-2.969c-0.102-0.046-0.186-0.111-0.241-0.213
							l-0.946-1.652l3.052-1.763l-0.093,0.269L222.404,196.652z"/>
					</g>
					<path id="XMLID_87_" style="fill:#F0F0F0;" d="M218.663,190.307l3.557,6.162c0.227,0.394,0.813,0.338,0.961-0.092l3.76-10.853
						L218.663,190.307z"/>
					<path id="XMLID_86_" style="fill:#F0F0F0;" d="M255.846,145.687c0-1.585-1.113-3.513-2.486-4.306l0.002,0.004
						c-1.373-0.793-3.599-0.793-4.971,0l-40.252,23.218c-1.373,0.793-2.486,2.72-2.486,4.306v20.384
						c0,1.586,1.113,3.513,2.486,4.306l-0.002-0.004c1.373,0.793,3.599,0.793,4.972,0l40.484-23.386
						c2.233-1.273,2.254-2.551,2.254-4.137L255.846,145.687z"/>
					<path id="XMLID_85_" style="fill:#E0E0E0;" d="M205.653,189.293c0,1.586,1.113,3.513,2.486,4.306l-0.002-0.004
						c1.241,0.716,3.172,0.787,4.547,0.208c-1.17,0.443-2.061-0.226-2.061-1.644l0-20.384c0-0.793,0.278-1.671,0.728-2.45
						l-4.969-2.866c-0.45,0.779-0.728,1.657-0.728,2.45V189.293z"/>
					<path id="XMLID_84_" style="fill:#FAFAFA;" d="M255.765,144.981c-0.29-1.055-1.252-1.392-2.4-0.731l-40.257,23.222
						c-0.684,0.394-1.31,1.067-1.751,1.855l-4.967-2.863c0.452-0.789,1.067-1.461,1.751-1.856l40.245-23.222
						c1.38-0.789,3.607-0.789,4.975,0l0.003-0.001C254.536,142.059,255.521,143.566,255.765,144.981z"/>
				</g>
				<g id="XMLID_80_">
					<path id="XMLID_82_" style="fill:#455A64;" d="M217.303,176.637l28.752-16.68c0.832-0.48,1.507-0.261,1.507,0.49
						c0,0.751-0.674,1.749-1.507,2.23l-28.752,16.68c-0.832,0.48-1.507,0.261-1.507-0.49
						C215.797,178.116,216.471,177.118,217.303,176.637z"/>
					<path id="XMLID_81_" style="fill:#455A64;" d="M217.303,182.536l20.04-11.616c0.832-0.48,1.507-0.261,1.507,0.49
						c0,0.751-0.674,1.749-1.507,2.23l-20.04,11.615c-0.832,0.48-1.507,0.261-1.507-0.49
						C215.797,184.014,216.471,183.016,217.303,182.536z"/>
				</g>
				<g id="XMLID_177_">
					<path id="XMLID_179_" style="fill:#455A64;" d="M217.303,170.758l28.752-16.68c0.832-0.48,1.507-0.261,1.507,0.49
						c0,0.751-0.674,1.749-1.507,2.23l-28.752,16.68c-0.832,0.48-1.507,0.261-1.507-0.49
						C215.797,172.236,216.471,171.238,217.303,170.758z"/>
				</g>
			</g>
			<g id="XMLID_3_">
				<g id="Sync_Icon_1_">
					<g id="XMLID_174_">
						<g id="XMLID_190_">
							<g id="XMLID_191_">
								<path id="XMLID_196_" style="fill:#455A64;" d="M216.935,198.823l-3.144-1.805c-0.864-0.488-2.048-0.416-3.359,0.342
									c-1.227,0.707-2.346,1.888-3.19,3.253c-0.975,1.573-1.589,3.394-1.589,5.026c0,1.522,0.533,2.591,1.395,3.091l3.153,1.806
									c0.871,0.555,2.1,0.506,3.464-0.281c2.64-1.524,4.78-5.231,4.781-8.28C218.445,200.388,217.864,199.294,216.935,198.823z"/>
								<path id="XMLID_176_" style="fill:#37474F;" d="M213.792,197.018c-0.864-0.487-2.049-0.415-3.36,0.343
									c-1.226,0.707-2.346,1.886-3.19,3.253c-0.976,1.573-1.589,3.392-1.589,5.024c0,1.522,0.532,2.592,1.394,3.092l3.119,1.786
									c-0.795-0.527-1.282-1.567-1.282-3.023c0-1.63,0.611-3.448,1.587-5.021c0.846-1.367,1.966-2.548,3.194-3.259
									c1.248-0.72,2.384-0.824,3.235-0.411L213.792,197.018z"/>
							</g>
						</g>
					</g>
				</g>
				<path id="XMLID_192_" style="fill:#FFFFFF;" d="M213.459,200.655c0.878-0.507,1.589-0.096,1.589,0.918
					c0,1.014-0.712,2.246-1.589,2.753c-0.878,0.507-1.59,0.096-1.59-0.918S212.581,201.162,213.459,200.655z"/>
				<path id="XMLID_10_" style="fill:#FFFFFF;" d="M213.668,209.361c1.157-0.668,2.192-1.844,2.924-3.175v-0.126
					c0-1.665-1.169-2.34-2.611-1.508l-0.902,0.52c-1.374,0.793-2.488,2.666-2.591,4.282c0.077,0.073,0.147,0.158,0.233,0.215
					l0.008,0.008l0.031,0.016C211.49,210.061,212.525,210.022,213.668,209.361z"/>
			</g>
		</g>
		<g id="XMLID_14_">
			<g id="XMLID_24_">
				<g id="XMLID_33_">
					<g id="XMLID_195_">
						<path id="XMLID_197_" style="fill:#E0E0E0;" d="M222.404,270.63l-5.14-2.969c-0.102-0.046-0.186-0.111-0.241-0.213
							l-0.946-1.652l3.052-1.763l-0.093,0.269L222.404,270.63z"/>
					</g>
					<path id="XMLID_193_" style="fill:#F0F0F0;" d="M218.663,264.285l3.557,6.162c0.227,0.394,0.813,0.338,0.961-0.092l3.76-10.853
						L218.663,264.285z"/>
					<path id="XMLID_189_" style="fill:#F0F0F0;" d="M255.846,219.665c0-1.585-1.113-3.513-2.486-4.306l0.002,0.004
						c-1.373-0.793-3.599-0.793-4.971,0l-40.252,23.218c-1.373,0.793-2.486,2.72-2.486,4.306v20.384
						c0,1.585,1.113,3.513,2.486,4.306l-0.002-0.004c1.373,0.793,3.599,0.793,4.972,0l40.484-23.386
						c2.233-1.273,2.254-2.551,2.254-4.137L255.846,219.665z"/>
					<path id="XMLID_35_" style="fill:#E0E0E0;" d="M205.653,263.271c0,1.585,1.113,3.513,2.486,4.306l-0.002-0.004
						c1.241,0.716,3.172,0.787,4.547,0.208c-1.17,0.442-2.061-0.226-2.061-1.644l0-20.384c0-0.793,0.278-1.671,0.728-2.45
						l-4.969-2.866c-0.45,0.779-0.728,1.657-0.728,2.45V263.271z"/>
					<path id="XMLID_34_" style="fill:#FAFAFA;" d="M255.765,218.959c-0.29-1.055-1.252-1.392-2.4-0.731l-40.257,23.222
						c-0.684,0.394-1.31,1.067-1.751,1.855l-4.967-2.863c0.452-0.789,1.067-1.461,1.751-1.856l40.245-23.222
						c1.38-0.789,3.607-0.789,4.975,0l0.003-0.001C254.536,216.036,255.521,217.544,255.765,218.959z"/>
				</g>
				<g id="XMLID_30_">
					<path id="XMLID_32_" style="fill:#455A64;" d="M217.303,250.615l28.752-16.68c0.832-0.48,1.507-0.261,1.507,0.49
						c0,0.751-0.674,1.749-1.507,2.23l-28.752,16.68c-0.832,0.48-1.507,0.261-1.507-0.49
						C215.797,252.094,216.471,251.096,217.303,250.615z"/>
					<path id="XMLID_31_" style="fill:#455A64;" d="M217.303,256.514l20.04-11.616c0.832-0.48,1.507-0.261,1.507,0.49
						c0,0.751-0.674,1.749-1.507,2.23l-20.04,11.615c-0.832,0.48-1.507,0.261-1.507-0.49
						C215.797,257.992,216.471,256.994,217.303,256.514z"/>
				</g>
				<g id="XMLID_28_">
					<path id="XMLID_29_" style="fill:#455A64;" d="M217.303,244.736l28.752-16.68c0.832-0.48,1.507-0.261,1.507,0.49
						c0,0.751-0.674,1.749-1.507,2.23l-28.752,16.68c-0.832,0.48-1.507,0.261-1.507-0.49
						C215.797,246.214,216.471,245.216,217.303,244.736z"/>
				</g>
			</g>
			<g id="XMLID_15_">
				<g id="Sync_Icon_3_">
					<g id="XMLID_18_">
						<g id="XMLID_19_">
							<g id="XMLID_20_">
								<path id="XMLID_22_" style="fill:#455A64;" d="M216.935,272.801l-3.144-1.805c-0.864-0.488-2.048-0.416-3.359,0.342
									c-1.227,0.707-2.346,1.888-3.19,3.253c-0.975,1.573-1.589,3.394-1.589,5.026c0,1.522,0.533,2.591,1.395,3.091l3.153,1.806
									c0.871,0.555,2.1,0.506,3.464-0.281c2.64-1.524,4.78-5.231,4.781-8.28C218.445,274.366,217.864,273.272,216.935,272.801z"/>
								<path id="XMLID_21_" style="fill:#37474F;" d="M213.792,270.996c-0.864-0.487-2.049-0.415-3.36,0.343
									c-1.226,0.707-2.346,1.886-3.19,3.253c-0.976,1.573-1.589,3.392-1.589,5.024c0,1.522,0.532,2.592,1.394,3.092l3.119,1.786
									c-0.795-0.527-1.282-1.567-1.282-3.023c0-1.63,0.611-3.448,1.587-5.021c0.846-1.367,1.966-2.548,3.194-3.259
									c1.248-0.72,2.384-0.824,3.235-0.411L213.792,270.996z"/>
							</g>
						</g>
					</g>
				</g>
				<path id="XMLID_17_" style="fill:#FFFFFF;" d="M213.459,274.633c0.878-0.507,1.589-0.096,1.589,0.918
					c0,1.014-0.712,2.246-1.589,2.753c-0.878,0.507-1.59,0.096-1.59-0.918S212.581,275.14,213.459,274.633z"/>
				<path id="XMLID_16_" style="fill:#FFFFFF;" d="M213.668,283.339c1.157-0.668,2.192-1.844,2.924-3.175v-0.126
					c0-1.665-1.169-2.34-2.611-1.508l-0.902,0.521c-1.374,0.793-2.488,2.666-2.591,4.282c0.077,0.073,0.147,0.158,0.233,0.215
					l0.008,0.008l0.031,0.016C211.49,284.038,212.525,284,213.668,283.339z"/>
			</g>
		</g>
		<g id="XMLID_11_">
			<g id="XMLID_91_">
				<g id="XMLID_95_">
					<g id="XMLID_183_">
						<g id="XMLID_181_">
							<path id="XMLID_182_" style="fill:#27DEBF;" d="M282.552,200.733l-5.14-2.969c-0.102-0.046-0.186-0.111-0.241-0.213
								l-0.946-1.651l3.052-1.763l-0.093,0.269L282.552,200.733z"/>
						</g>
						<g id="XMLID_100_" style="opacity:0.1;">
							<path id="XMLID_101_" d="M282.552,200.733l-5.14-2.969c-0.102-0.046-0.186-0.111-0.241-0.213l-0.946-1.651l3.052-1.763
								l-0.093,0.269L282.552,200.733z"/>
						</g>
						<path id="XMLID_99_" style="fill:#27DEBF;" d="M278.812,194.388l3.557,6.162c0.227,0.394,0.813,0.338,0.961-0.092l3.76-10.853
							L278.812,194.388z"/>
					</g>
					<path id="XMLID_98_" style="fill:#27DEBF;" d="M298.292,160.05c0-1.585-1.113-3.513-2.486-4.306l0.002,0.004
						c-1.373-0.793-3.599-0.793-4.971,0l-40.252,23.218c-1.373,0.793-2.486,2.72-2.486,4.306v20.384
						c0,1.586,1.113,3.513,2.486,4.306l-0.002-0.004c1.373,0.793,3.599,0.793,4.972,0l40.484-23.386
						c2.233-1.273,2.254-2.551,2.254-4.137L298.292,160.05z"/>
					<g id="XMLID_92_">
						<g id="XMLID_175_">
							<path id="XMLID_180_" style="fill:#455A64;" d="M261.477,190l28.752-16.68c0.832-0.48,1.507-0.261,1.507,0.49
								c0,0.751-0.674,1.749-1.507,2.23l-28.752,16.68c-0.832,0.48-1.507,0.261-1.507-0.49
								C259.971,191.479,260.645,190.48,261.477,190z"/>
							<path id="XMLID_178_" style="fill:#455A64;" d="M270.189,190.766l20.04-11.616c0.832-0.48,1.507-0.261,1.507,0.49
								c0,0.751-0.674,1.749-1.507,2.23l-20.04,11.615c-0.832,0.48-1.507,0.261-1.507-0.49S269.357,191.246,270.189,190.766z"/>
						</g>
						<g id="XMLID_93_">
							<path id="XMLID_94_" style="fill:#455A64;" d="M261.477,184.12l28.752-16.68c0.832-0.48,1.507-0.261,1.507,0.49
								c0,0.751-0.674,1.749-1.507,2.23l-28.752,16.68c-0.832,0.48-1.507,0.261-1.507-0.49
								C259.971,185.599,260.645,184.601,261.477,184.12z"/>
						</g>
					</g>
					<path id="XMLID_97_" style="opacity:0.1;" d="M248.099,203.655c0,1.586,1.113,3.513,2.486,4.306l-0.002-0.004
						c1.241,0.717,3.172,0.787,4.547,0.209c-1.17,0.442-2.061-0.226-2.061-1.644l0-20.384c0-0.793,0.279-1.671,0.728-2.45
						l-4.969-2.866c-0.45,0.779-0.728,1.657-0.728,2.45V203.655z"/>
					<path id="XMLID_96_" style="opacity:0.3;fill:#FFFFFF;" d="M298.211,159.343c-0.29-1.055-1.252-1.392-2.4-0.731l-40.257,23.222
						c-0.684,0.394-1.31,1.067-1.751,1.855l-4.967-2.863c0.452-0.789,1.067-1.461,1.751-1.855l40.245-23.222
						c1.38-0.789,3.607-0.789,4.975,0l0.003-0.001C296.982,156.421,297.967,157.928,298.211,159.343z"/>
				</g>
			</g>
			<g id="XMLID_9_">
				<g id="Sync_Icon_2_">
					<g id="XMLID_184_">
						<g id="XMLID_185_">
							<g id="XMLID_186_">
								<path id="XMLID_188_" style="fill:#455A64;" d="M296.783,193.013l-3.144-1.805c-0.864-0.488-2.048-0.416-3.359,0.342
									c-1.227,0.707-2.346,1.887-3.19,3.253c-0.975,1.573-1.589,3.394-1.589,5.026c0,1.522,0.533,2.591,1.395,3.091l3.153,1.806
									c0.871,0.555,2.1,0.506,3.464-0.281c2.64-1.524,4.78-5.231,4.78-8.28C298.292,194.577,297.711,193.483,296.783,193.013z"/>
								<path id="XMLID_187_" style="fill:#37474F;" d="M293.639,191.208c-0.864-0.487-2.049-0.415-3.36,0.343
									c-1.226,0.707-2.346,1.886-3.19,3.253c-0.976,1.573-1.589,3.392-1.589,5.024c0,1.522,0.532,2.592,1.394,3.092l3.119,1.786
									c-0.795-0.527-1.282-1.567-1.282-3.022c0-1.63,0.611-3.448,1.587-5.021c0.846-1.367,1.966-2.548,3.194-3.259
									c1.248-0.719,2.384-0.824,3.235-0.411L293.639,191.208z"/>
							</g>
						</g>
					</g>
				</g>
				<path id="XMLID_8_" style="fill:#27DEBF;" d="M293.236,195.011c0.878-0.507,1.59-0.096,1.59,0.918
					c0,1.014-0.712,2.246-1.59,2.753c-0.878,0.507-1.59,0.096-1.59-0.918S292.358,195.518,293.236,195.011z"/>
				<path id="XMLID_7_" style="fill:#27DEBF;" d="M293.444,203.717c1.157-0.668,2.192-1.844,2.924-3.175v-0.126
					c0-1.665-1.169-2.34-2.611-1.508l-0.902,0.521c-1.374,0.793-2.488,2.667-2.591,4.282c0.077,0.073,0.147,0.158,0.233,0.215
					l0.008,0.008l0.031,0.016C291.267,204.417,292.301,204.378,293.444,203.717z"/>
			</g>
		</g>
		<g id="XMLID_198_">
			<g id="XMLID_215_">
				<g id="XMLID_218_">
					<g id="XMLID_234_">
						<g id="XMLID_240_">
							<path id="XMLID_241_" style="fill:#27DEBF;" d="M281.08,257.462l-2.89-1.669c-0.057-0.026-0.104-0.063-0.136-0.12
								l-0.532-0.928l1.716-0.991l-0.052,0.151L281.08,257.462z"/>
						</g>
						<g id="XMLID_238_" style="opacity:0.1;">
							<path id="XMLID_239_" d="M281.08,257.462l-2.89-1.669c-0.057-0.026-0.104-0.063-0.136-0.12l-0.532-0.928l1.716-0.991
								l-0.052,0.151L281.08,257.462z"/>
						</g>
						<path id="XMLID_236_" style="fill:#27DEBF;" d="M278.978,253.895l2,3.464c0.128,0.221,0.457,0.19,0.54-0.052l2.114-6.101
							L278.978,253.895z"/>
					</g>
					<path id="XMLID_233_" style="fill:#27DEBF;" d="M294.646,236.674c0-1.585-1.113-3.513-2.486-4.306l0.002,0.004
						c-1.373-0.793-3.599-0.793-4.971,0l-14.247,8.214c-1.373,0.793-2.486,2.72-2.486,4.306v5.441c0,1.585,1.113,3.513,2.486,4.306
						l-0.002-0.004c1.373,0.793,3.599,0.793,4.972,0l14.479-8.383c2.233-1.273,2.254-2.551,2.254-4.137L294.646,236.674z"/>
					<path id="XMLID_225_" style="opacity:0.1;" d="M270.458,250.333c0,1.585,1.113,3.513,2.486,4.306l-0.002-0.004
						c1.241,0.717,3.172,0.787,4.547,0.209c-1.17,0.442-2.061-0.226-2.061-1.644l0-5.441c0-0.793,0.278-1.671,0.728-2.45
						l-4.969-2.866c-0.45,0.779-0.728,1.657-0.728,2.45V250.333z"/>
					<path id="XMLID_224_" style="opacity:0.3;fill:#FFFFFF;" d="M294.565,235.968c-0.29-1.055-1.252-1.392-2.4-0.731l-14.253,8.218
						c-0.684,0.394-1.31,1.067-1.751,1.855l-4.967-2.863c0.452-0.789,1.067-1.461,1.751-1.856l14.241-8.218
						c1.38-0.789,3.607-0.789,4.975,0l0.003-0.001C293.336,233.045,294.321,234.553,294.565,235.968z"/>
					<g id="XMLID_40_">
						<path id="XMLID_38_" style="fill:#455A64;" d="M280.926,246.231c-0.751,0.434-1.36,1.488-1.36,2.356
							c0,0.867,0.609,1.219,1.36,0.785c0.751-0.434,1.36-1.488,1.36-2.356C282.286,246.149,281.677,245.798,280.926,246.231z"/>
						<path id="XMLID_37_" style="fill:#455A64;" d="M285.235,243.74c-0.751,0.434-1.36,1.488-1.36,2.356
							c0,0.868,0.609,1.219,1.36,0.786s1.36-1.488,1.36-2.356C286.595,243.658,285.986,243.306,285.235,243.74z"/>
						<path id="XMLID_36_" style="fill:#455A64;" d="M289.543,241.249c-0.751,0.434-1.36,1.488-1.36,2.356
							c0,0.867,0.609,1.219,1.36,0.785c0.751-0.434,1.36-1.488,1.36-2.356C290.903,241.167,290.294,240.815,289.543,241.249z"/>
					</g>
				</g>
			</g>
			<g id="XMLID_199_">
				<g id="Sync_Icon_4_">
					<g id="XMLID_203_">
						<g id="XMLID_206_">
							<g id="XMLID_207_">
								<path id="XMLID_211_" style="fill:#455A64;" d="M296.783,250.733l-3.144-1.805c-0.864-0.488-2.048-0.416-3.359,0.342
									c-1.227,0.707-2.346,1.888-3.19,3.253c-0.975,1.573-1.589,3.394-1.589,5.026c0,1.522,0.533,2.591,1.395,3.091l3.153,1.806
									c0.871,0.555,2.1,0.506,3.464-0.281c2.64-1.524,4.78-5.231,4.78-8.28C298.292,252.298,297.711,251.204,296.783,250.733z"/>
								<path id="XMLID_208_" style="fill:#37474F;" d="M293.639,248.928c-0.864-0.487-2.049-0.415-3.36,0.343
									c-1.226,0.707-2.346,1.886-3.19,3.253c-0.976,1.573-1.589,3.392-1.589,5.024c0,1.522,0.532,2.592,1.394,3.092l3.119,1.786
									c-0.795-0.527-1.282-1.567-1.282-3.023c0-1.63,0.611-3.448,1.587-5.021c0.846-1.367,1.966-2.548,3.194-3.259
									c1.248-0.72,2.384-0.824,3.235-0.411L293.639,248.928z"/>
							</g>
						</g>
					</g>
				</g>
				<path id="XMLID_201_" style="fill:#27DEBF;" d="M293.236,252.732c0.878-0.507,1.59-0.096,1.59,0.918
					c0,1.014-0.712,2.246-1.59,2.753c-0.878,0.507-1.59,0.096-1.59-0.918C291.646,254.471,292.358,253.239,293.236,252.732z"/>
				<path id="XMLID_200_" style="fill:#27DEBF;" d="M293.444,261.437c1.157-0.668,2.192-1.844,2.924-3.175v-0.126
					c0-1.665-1.169-2.34-2.611-1.508l-0.902,0.52c-1.374,0.793-2.488,2.666-2.591,4.282c0.077,0.073,0.147,0.158,0.233,0.215
					l0.008,0.008l0.031,0.016C291.267,262.137,292.301,262.098,293.444,261.437z"/>
			</g>
		</g>
	</g>
</g>
<g id="Speech_Bubbles">
	<g id="Speach_Bubble_1_">
		<g id="XMLID_135_">
			<g id="XMLID_141_">
				<path id="XMLID_142_" style="fill:#E0E0E0;" d="M383.593,214.104l-5.14-2.969c-0.102-0.046-0.185-0.111-0.241-0.213
					l-0.946-1.651l3.052-1.763l-0.093,0.269L383.593,214.104z"/>
			</g>
			<path id="XMLID_140_" style="fill:#F0F0F0;" d="M379.853,207.759l3.557,6.162c0.227,0.394,0.813,0.338,0.961-0.092l3.76-10.853
				L379.853,207.759z"/>
			<path id="XMLID_139_" style="fill:#F0F0F0;" d="M417.035,163.139c0-1.585-1.113-3.513-2.486-4.306l0.002,0.004
				c-1.373-0.793-3.599-0.793-4.971,0l-40.252,23.217c-1.373,0.793-2.486,2.72-2.486,4.306v20.384c0,1.585,1.113,3.513,2.486,4.306
				l-0.002-0.004c1.373,0.793,3.599,0.793,4.972,0l40.484-23.386c2.233-1.273,2.254-2.551,2.254-4.137L417.035,163.139z"/>
			<path id="XMLID_137_" style="fill:#E0E0E0;" d="M366.842,206.745c0,1.585,1.113,3.513,2.486,4.306l-0.002-0.004
				c1.241,0.716,3.172,0.787,4.547,0.208c-1.17,0.442-2.061-0.226-2.061-1.644l0-20.384c0-0.793,0.279-1.671,0.728-2.45
				l-4.969-2.866c-0.45,0.779-0.728,1.657-0.728,2.45V206.745z"/>
			<path id="XMLID_136_" style="fill:#F5F5F5;" d="M416.954,162.433c-0.29-1.055-1.252-1.392-2.4-0.731l-40.257,23.222
				c-0.684,0.394-1.31,1.067-1.751,1.856l-4.967-2.863c0.452-0.789,1.067-1.461,1.751-1.855l40.245-23.222
				c1.38-0.789,3.607-0.789,4.975,0l0.003-0.001C415.725,159.51,416.71,161.018,416.954,162.433z"/>
		</g>
		<g id="XMLID_131_">
			<path id="XMLID_134_" style="fill:#455A64;" d="M378.492,194.089l28.752-16.68c0.832-0.48,1.507-0.261,1.507,0.49
				s-0.674,1.749-1.507,2.23l-28.752,16.68c-0.832,0.48-1.507,0.261-1.507-0.49C376.986,195.568,377.66,194.569,378.492,194.089z"/>
			<path id="XMLID_132_" style="fill:#455A64;" d="M378.492,199.988l20.041-11.616c0.832-0.48,1.507-0.261,1.507,0.49
				c0,0.751-0.675,1.749-1.507,2.23l-20.041,11.615c-0.832,0.48-1.507,0.261-1.507-0.49
				C376.986,201.466,377.66,200.468,378.492,199.988z"/>
		</g>
		<g id="XMLID_126_">
			<path id="XMLID_130_" style="fill:#455A64;" d="M378.492,188.209l28.752-16.68c0.832-0.48,1.507-0.261,1.507,0.49
				s-0.674,1.749-1.507,2.23l-28.752,16.68c-0.832,0.48-1.507,0.261-1.507-0.49C376.986,189.688,377.66,188.69,378.492,188.209z"/>
		</g>
	</g>
	<g id="Speach_Bubble">
		<g id="XMLID_144_">
			<g id="XMLID_232_">
				<g id="XMLID_272_">
					<path id="XMLID_273_" style="fill:#27DEBF;" d="M101.67,135.846l5.14-2.969c0.102-0.046,0.186-0.111,0.241-0.213l0.946-1.652
						l-3.052-1.763l0.093,0.269L101.67,135.846z"/>
				</g>
				<g id="XMLID_268_" style="opacity:0.1;">
					<path id="XMLID_271_" d="M101.67,135.846l5.14-2.969c0.102-0.046,0.186-0.111,0.241-0.213l0.946-1.652l-3.052-1.763
						l0.093,0.269L101.67,135.846z"/>
				</g>
				<path id="XMLID_267_" style="fill:#27DEBF;" d="M105.41,129.502l-3.557,6.161c-0.227,0.394-0.813,0.338-0.961-0.091
					l-3.76-10.853L105.41,129.502z"/>
			</g>
			<path id="XMLID_231_" style="fill:#27DEBF;" d="M85.93,95.163c0-1.585,1.113-3.513,2.486-4.306l-0.002,0.004
				c1.373-0.793,3.599-0.793,4.971,0l40.252,23.218c1.373,0.793,2.486,2.72,2.486,4.306v20.384c0,1.585-1.113,3.513-2.486,4.306
				l0.002-0.004c-1.373,0.793-3.599,0.793-4.972,0l-40.484-23.386c-2.233-1.273-2.254-2.551-2.254-4.137L85.93,95.163z"/>
			<g id="XMLID_147_">
				<g id="XMLID_172_">
					<path id="XMLID_229_" style="fill:#455A64;" d="M122.744,125.114l-28.752-16.68c-0.832-0.48-1.507-0.261-1.507,0.49
						c0,0.751,0.674,1.749,1.507,2.23l28.752,16.68c0.832,0.48,1.507,0.261,1.507-0.49
						C124.251,126.592,123.576,125.594,122.744,125.114z"/>
					<path id="XMLID_173_" style="fill:#455A64;" d="M114.033,125.879l-20.041-11.616c-0.832-0.48-1.507-0.261-1.507,0.49
						s0.674,1.749,1.507,2.23l20.041,11.615c0.832,0.48,1.507,0.261,1.507-0.49C115.539,127.358,114.865,126.36,114.033,125.879z"/>
				</g>
				<g id="XMLID_150_">
					<path id="XMLID_171_" style="fill:#455A64;" d="M122.744,119.234l-28.752-16.68c-0.832-0.48-1.507-0.261-1.507,0.49
						c0,0.751,0.674,1.75,1.507,2.23l28.752,16.68c0.832,0.48,1.507,0.261,1.507-0.49
						C124.251,120.713,123.576,119.715,122.744,119.234z"/>
				</g>
			</g>
			<path id="XMLID_146_" style="opacity:0.1;" d="M136.122,138.769c0,1.585-1.113,3.513-2.486,4.306l0.002-0.004
				c-1.241,0.717-3.172,0.787-4.547,0.208c1.17,0.443,2.061-0.226,2.061-1.644l0-20.384c0-0.793-0.278-1.671-0.728-2.45l4.969-2.866
				c0.45,0.779,0.728,1.657,0.728,2.45V138.769z"/>
			<path id="XMLID_145_" style="opacity:0.3;fill:#FFFFFF;" d="M86.011,94.457c0.29-1.055,1.252-1.392,2.4-0.731l40.257,23.222
				c0.684,0.394,1.31,1.067,1.751,1.855l4.967-2.863c-0.452-0.789-1.067-1.461-1.751-1.856L93.39,90.863
				c-1.38-0.789-3.607-0.789-4.975,0l-0.003-0.001C87.24,91.534,86.255,93.042,86.011,94.457z"/>
		</g>
	</g>
</g>
<g id="Message_Icon">
	<g id="Message_icon">
		<g id="XMLID_67_">
			<g id="XMLID_72_">
				<g id="XMLID_227_">
					<path id="XMLID_230_" style="fill:#263238;" d="M339.761,147.187l-5.54-3.2c-0.11-0.05-0.2-0.12-0.26-0.23l-1.02-1.78l3.29-1.9
						l-0.1,0.29L339.761,147.187z"/>
				</g>
				<path id="XMLID_226_" style="fill:#37474F;" d="M335.729,140.348l3.834,6.641c0.245,0.425,0.876,0.364,1.036-0.099l4.052-11.698
					L335.729,140.348z"/>
				<path id="XMLID_75_" style="fill:#37474F;" d="M381.207,61.317c0-1.709-1.199-3.786-2.679-4.641l-2.182-1.259
					c-1.479-0.854-3.879-0.854-5.358,0l-51.507,29.75c-1.48,0.855-2.679,2.932-2.679,4.641v49.684c0,1.709,1.2,3.786,2.679,4.641
					l2.182,1.26c1.48,0.854,3.879,0.854,5.359,0l51.757-29.932c2.407-1.372,2.429-2.75,2.429-4.459L381.207,61.317z"/>
				<path id="XMLID_74_" style="fill:#263238;" d="M316.801,139.492c0,1.709,1.2,3.786,2.679,4.641l2.182,1.26
					c1.338,0.772,3.419,0.848,4.901,0.225c-1.261,0.477-2.221-0.243-2.221-1.772l0-49.685c0-0.854,0.3-1.801,0.785-2.641
					l-7.54-4.353c-0.485,0.84-0.785,1.786-0.785,2.641V139.492z"/>
				<path id="XMLID_73_" style="fill:#455A64;" d="M381.119,60.555c-0.313-1.138-1.35-1.5-2.587-0.788l-51.513,29.755
					c-0.737,0.425-1.412,1.15-1.888,2l-7.537-4.35c0.487-0.85,1.15-1.575,1.887-2l51.5-29.755c1.488-0.85,3.887-0.85,5.363,0
					l2.188,1.263C379.795,57.405,380.857,59.03,381.119,60.555z"/>
			</g>
		</g>
		<g id="XMLID_305_">
			<g id="XMLID_309_">
				<path id="XMLID_360_" style="fill:#27DEBF;" d="M329.653,97.492c0-0.531,0.372-1.176,0.832-1.441l42.559-24.571
					c0.459-0.265,1.204-0.265,1.664,0l0.938,0.541c0.459,0.265,0.832,0.91,0.832,1.441v32.622c0,0.528-0.374,1.177-0.832,1.441
					l-42.559,24.571c-0.458,0.264-1.206,0.264-1.664,0l-0.938-0.541c-0.457-0.264-0.832-0.913-0.832-1.441L329.653,97.492z"/>
				<path id="XMLID_358_" style="opacity:0.4;fill:#FFFFFF;" d="M329.653,97.492c0-0.531,0.372-1.176,0.832-1.441l42.559-24.571
					c0.459-0.265,1.204-0.265,1.664,0l0.938,0.541c0.459,0.265,0.832,0.91,0.832,1.441v32.622c0,0.528-0.374,1.177-0.832,1.441
					l-42.559,24.571c-0.458,0.264-1.206,0.264-1.664,0l-0.938-0.541c-0.457-0.264-0.832-0.913-0.832-1.441L329.653,97.492z"/>
				<path id="XMLID_355_" style="fill:#27DEBF;" d="M333.555,98.785l-3.658-2.112c-0.15,0.261-0.243,0.554-0.243,0.819l0,32.622
					c0,0.528,0.374,1.177,0.832,1.441l0.938,0.541c0.458,0.264,1.206,0.264,1.664,0l0.468-0.27V98.785z"/>
				<path id="XMLID_354_" style="opacity:0.3;" d="M333.555,98.785l-3.658-2.112c-0.15,0.261-0.243,0.554-0.243,0.819l0,32.622
					c0,0.528,0.374,1.177,0.832,1.441l0.938,0.541c0.458,0.264,1.206,0.264,1.664,0l0.468-0.27V98.785z"/>
				<path id="XMLID_353_" style="fill:#27DEBF;" d="M376.478,73.464v32.622c0,0.272-0.099,0.576-0.259,0.842
					c-0.131,0.218-0.298,0.413-0.487,0.544l-0.032,0.019c-0.019,0.013-0.035,0.026-0.055,0.035l-42.557,24.569l-0.006,0.003
					c-0.221,0.125-0.419,0.141-0.567,0.064c-0.16-0.083-0.259-0.272-0.259-0.548V98.993c0-0.528,0.416-0.861,0.935-0.736
					l17.896,4.255l2.344,0.557c0.519,0.122,1.188-0.128,1.495-0.56l2.715-3.782l18.277-25.446
					C376.225,72.852,376.478,72.932,376.478,73.464z"/>
				<path id="XMLID_352_" style="fill:#27DEBF;" d="M375.646,107.526c0.019-0.01,0.035-0.022,0.055-0.035l0.032-0.019
					c0.189-0.131,0.355-0.327,0.487-0.544c0.157-0.261,0.255-0.56,0.258-0.828l-18.836-7.372l12.614,11.911L375.646,107.526z"/>
				<path id="XMLID_350_" style="opacity:0.2;" d="M375.646,107.526c0.019-0.01,0.035-0.022,0.055-0.035l0.032-0.019
					c0.189-0.131,0.355-0.327,0.487-0.544c0.157-0.261,0.255-0.56,0.258-0.828l-18.836-7.372l12.614,11.911L375.646,107.526z"/>
				<path id="XMLID_348_" style="fill:#27DEBF;" d="M332.255,131.615c0,0.275,0.099,0.464,0.259,0.548
					c0.147,0.077,0.346,0.061,0.567-0.064l0.006-0.003l14.652-8.459l3.346-21.124l-18.831,28.561V131.615z"/>
				<path id="XMLID_311_" style="opacity:0.2;" d="M332.255,131.615c0,0.275,0.099,0.464,0.259,0.548
					c0.147,0.077,0.346,0.061,0.567-0.064l0.006-0.003l14.652-8.459l3.346-21.124l-18.831,28.561V131.615z"/>
				<path id="XMLID_310_" style="fill:#27DEBF;" d="M376.219,106.928c-0.131,0.218-0.298,0.413-0.487,0.544l-0.032,0.019
					l-42.612,24.604l-0.006,0.003c-0.221,0.125-0.419,0.141-0.567,0.064l20.379-32.534c0.845-1.348,2.551-1.872,4.007-1.229
					L376.219,106.928z"/>
			</g>
			<path id="XMLID_307_" style="opacity:0.3;" d="M332.601,98.214l19.363,8.549c1.441,0.636,3.131,0.117,3.966-1.219l20.333-32.538
				L332.601,98.214z"/>
			<path id="XMLID_306_" style="fill:#27DEBF;" d="M332.601,98.214l19.499,7.285c1.388,0.519,2.951,0.005,3.761-1.236l20.402-31.257
				L332.601,98.214z"/>
		</g>
		<g id="XMLID_368_">
			<g id="XMLID_364_">
				<path id="XMLID_366_" style="fill:#F28F8F;" d="M392.457,48.952l-4.504-2.599c-0.001-0.001-0.003-0.002-0.004-0.002
					l-0.032-0.018l-0.003,0.005c-1.542-0.871-3.659-0.739-6,0.612c-4.714,2.722-8.537,9.342-8.537,14.787
					c0,2.718,0.953,4.627,2.493,5.521v0.001l0.007,0.004l0.001,0.001l4.191,2.4l0.755-1.263c0.78-0.179,1.592-0.457,2.449-0.952
					c4.714-2.722,8.537-9.342,8.538-14.787c0-0.809-0.109-1.52-0.268-2.181L392.457,48.952z"/>
				<path id="XMLID_365_" style="fill:#FFA8A7;" d="M386.245,49.438c-4.715,2.722-8.538,9.342-8.538,14.786
					c0,5.444,3.822,7.651,8.537,4.929c4.715-2.722,8.537-9.342,8.538-14.787C394.782,48.922,390.96,46.715,386.245,49.438z"/>
				<path id="XMLID_362_" style="fill:#FFFFFF;" d="M383.189,59.527c-0.053-0.061-0.074-0.152-0.058-0.275
					c0.015-0.122,0.058-0.238,0.127-0.35l2.485-3.977c0.061-0.097,0.137-0.212,0.225-0.346c0.088-0.132,0.191-0.233,0.306-0.3
					l1.41-0.814c0.085-0.049,0.159-0.05,0.22-0.004c0.061,0.047,0.092,0.127,0.092,0.24v9.956c0,0.113-0.032,0.229-0.092,0.345
					c-0.062,0.118-0.136,0.202-0.22,0.251l-1.514,0.874c-0.085,0.049-0.158,0.05-0.219,0.003c-0.062-0.046-0.091-0.126-0.091-0.239
					v-6.735l-1.376,2.181c-0.069,0.112-0.147,0.185-0.231,0.218c-0.085,0.034-0.154,0.021-0.208-0.041L383.189,59.527z"/>
			</g>
		</g>
	</g>
</g>
<g id="Character_2">
	<g id="Character_2_">
		<g id="XMLID_3938_">
			<path id="XMLID_106_" style="fill:#FFA8A7;" d="M403.355,310.191c-2.421-2.822-4.39-6.824-5.255-7.648
				c-2.533-2.413-5.118-36.563-5.118-36.563c5.906-0.201,9.076,2.038,10.097,6.539c1.022,4.5,5.075,26.502,5.075,26.502"/>
			<g id="XMLID_3941_">
				<g id="XMLID_689_">
					<path id="XMLID_696_" style="fill:#37474F;" d="M367.353,312.726c-2.946,5.948-10.207,23.826-13.086,36.19
						c-2.696,11.582-3.743,19.602,0,22.406c3.642,2.729,14.488,1.095,21.286-13.375c2.126-4.525,10.133-18.504,10.133-18.504
						s5.927-2.137,7.97-3.737c0,0,19.766,0.576,29.364-1.39c9.598-1.967,19.811-13.694,15.879-14.85
						c-7.071-2.08-20.847-3.585-36.795-4.611L367.353,312.726z"/>
					<path id="XMLID_695_" style="fill:#263238;" d="M413.593,331.837c-4.325,1.005-10.728-0.333-14.338-1.383
						c0.383-1.936-0.121-3.834-0.121-3.834c-0.15,1.902-1.01,3.738-1.602,4.802c-0.594,0.334-1.099,0.614-1.463,0.8
						c-2.401,1.223-8.996,4.597-10.223,3.535c-2.801-3.858-7.392-4.688-7.392-4.688c2.066,1.39,8.057,5.683,5.931,10.659
						l1.301-2.284c0,0,5.927-2.137,7.97-3.737c0,0,11.051,0.322,20.639-0.338l11.39-7.878
						C425.685,327.491,420.221,327.173,413.593,331.837z"/>
					<g id="XMLID_44_">
						<path id="XMLID_693_" style="fill:#FFA8A7;" d="M402.517,345.674c-2.064,1.864-5.225,3.368-7.444,2.903
							c-2.22-0.465-5.4-0.672-6.644,3.755c-1.412,5.024-5.981,8.091-8.523,10.848c-2.542,2.757-1.721,6.902-0.405,9.758
							c2.223,4.825,5.46,1.911,7.26-1.149c1.8-3.06,7.076-8.665,9.625-10.997c2.775-2.539,5.565-5.39,9.031-7.854L402.517,345.674z"
							/>
						<path id="XMLID_692_" style="fill:#37474F;" d="M432.28,319.101c12.372-1.258,12.625,6.288,9.44,11.395
							c-3.432,5.504-16.516,12.294-22.927,15.558c-6.411,3.264-15.366,8.376-15.366,8.376s-2.839-2.706-3.382-7.433
							c7.05-4.916,13.882-17.559,25.641-19.506L432.28,319.101z"/>
						<path id="XMLID_51_" style="fill:#263238;" d="M395.892,348.661l0.001-0.004c-0.284-0.003-0.56-0.025-0.821-0.08
							c-2.22-0.465-5.4-0.672-6.644,3.755c-1.412,5.024-5.981,8.091-8.523,10.848c-2.542,2.757-1.721,6.902-0.405,9.758
							c2.223,4.825,5.46,1.911,7.26-1.149c0.696-1.184,1.915-2.75,3.293-4.359c-1.741,1.714-3.716,1.335-4.624,0.549
							c-0.907-0.786-0.242-3.568,1.451-5.442C388.574,360.662,394.717,348.507,395.892,348.661z"/>
					</g>
					<g id="XMLID_46_">
						<path id="XMLID_691_" style="fill:#FFA8A7;" d="M397.434,347.205c2.258-0.57,5.573-1.38,6.944-3.187
							c1.371-1.807,4.215-3.553,8.058-1.027c4.361,2.867,9.821,2.186,13.548,2.6c3.727,0.414,5.825,4.082,6.705,7.101
							c1.486,5.1-2.788,3.355-6.154,2.225c-3.365-1.13-11.165-2.191-14.478-1.747c-3.314,0.444-11.606,2.538-11.606,2.538
							L397.434,347.205z"/>
						<path id="XMLID_49_" style="fill:#263238;" d="M424.935,354.464c0.599,0.147,1.143,0.299,1.601,0.453
							c3.366,1.13,7.64,2.876,6.154-2.225c-0.88-3.019-2.978-6.687-6.705-7.101c-3.727-0.414-9.188,0.267-13.548-2.6
							c-3.843-2.526-6.688-0.781-8.058,1.027c-0.152,0.2-0.335,0.383-0.531,0.56l0.001,0.005c0,0,4.431,1.363,9.31,2.779
							c4.879,1.416,13.142,3.844,13.456,5.109C426.841,353.378,427.009,354.524,424.935,354.464z"/>
						<path id="XMLID_690_" style="fill:#37474F;" d="M352.245,368.025c0.717,4.394,5.646,6.512,16.216,4.397
							c10.571-2.115,33.34-16.576,33.34-16.576s1.403-7.45-4.379-9.081c0,0-5.26,0.952-13.844,2.821
							c-3.262,0.71-7.415,1.811-11.456,3.17c-5.8,7.788-11.838,4.642-14.012,7.382C354.485,364.71,352.245,368.025,352.245,368.025z
							"/>
					</g>
					<path id="XMLID_683_" style="fill:#263238;" d="M379.429,350.584c0,0-7.099,1.387-12.365,4.933c0,0,5.409-6.336,13.771-7.474
						L379.429,350.584z"/>
				</g>
				<g id="XMLID_684_">
					<g id="XMLID_686_">
						<path id="XMLID_687_" style="fill:#27DEBF;" d="M400.506,293.761c0.485,4.499,1.597,21.094,1.597,21.094
							c-3.493,11.766-30.595,9.397-35.831,0.164c2.902-6.754,4.069-11.846,4.069-11.846l-2.884-12.591c0,0,6.893-6.276,0-19.101
							l9.115-2.728l16.411-2.773c2.767,0.155,7.465,6.501,9.277,11.138C403.427,280.107,404.36,286.139,400.506,293.761z"/>
					</g>
				</g>
				<path id="XMLID_64_" style="opacity:0.15;" d="M386.297,322.832c-11.367-0.478-16.611-7.467-16.491-9.313
					c0.129-1.986,1.683-8.001,1.683-8.001l4.263,1.673l-3.517-5.116l-2.429-10.911c2.574-3.771,1.302-10.59,1.302-10.59
					l-0.712-0.421c0.832,6.986-2.938,10.428-2.938,10.428l2.884,12.591c0,0-1.168,5.092-4.069,11.846
					C369.052,319.92,377.995,322.887,386.297,322.832z"/>
				<g id="XMLID_3948_">
					<g id="XMLID_3964_">
						<path id="XMLID_3967_" style="fill:#263238;" d="M386.174,261.625l-5.976,0.163c-8.323,0.227-15.254-6.337-15.481-14.66l0,0
							c-0.272-9.973,7.593-18.279,17.567-18.55l0,0c9.973-0.272,18.279,7.593,18.55,17.567l0,0
							C401.061,254.467,394.497,261.398,386.174,261.625z"/>
						<path id="XMLID_3965_" style="fill:#263238;" d="M367.656,238.348l-4.487-1.571c0.401-1.278,1.73-1.963,2.97-1.528
							C367.377,235.682,368.057,237.07,367.656,238.348z"/>
						<path id="XMLID_650_" style="fill:#263238;" d="M367.609,237.194l-1.384-4.548c1.268-0.432,2.606,0.236,2.988,1.493
							C369.595,235.394,368.878,236.762,367.609,237.194z"/>
					</g>
					<g id="XMLID_3949_">
						<g id="XMLID_3962_">
							<path id="XMLID_3963_" style="fill:#FFA8A7;" d="M393.632,236.364c1.938,1.075,4.426,5.809,4.468,15.872
								c0.035,8.529-2.671,10.71-4.042,11.355c-1.371,0.645-4.056,0.349-6.669-0.014l0.046,3.532c0,0,4.69,5.131,4.527,7.483
								c-0.162,2.352-6,3.572-9.426,1.371c-3.426-2.2-6.391-6.532-6.391-6.532l-0.253-11.822c0,0-1.491,1.529-4.148-0.67
								c-2.194-1.815-3.002-4.955-1.378-6.695c1.624-1.741,4.723-1.363,5.972,1.022c0,0,4.153,0.039,9.594-3.146
								C391.374,244.934,393.355,239.678,393.632,236.364z"/>
						</g>
						<g id="XMLID_3960_">
							<path id="XMLID_3961_" style="fill:#263238;" d="M388.525,250.354c0.048,0.613-0.392,1.146-0.983,1.191
								c-0.591,0.044-1.108-0.417-1.155-1.031c-0.048-0.614,0.392-1.146,0.983-1.191C387.96,249.279,388.477,249.74,388.525,250.354
								z"/>
						</g>
						<g id="XMLID_3958_">
							<path id="XMLID_3959_" style="fill:#F28F8F;" d="M389.008,257.571l2.511,0.726c-0.188,0.718-0.901,1.138-1.595,0.937
								C389.23,259.034,388.82,258.29,389.008,257.571z"/>
						</g>
						<g id="XMLID_3956_">
							<path id="XMLID_3957_" style="fill:#263238;" d="M397.224,246.823l-2.21-1.444c0.379-0.63,1.181-0.817,1.791-0.418
								C397.415,245.359,397.603,246.193,397.224,246.823z"/>
						</g>
						<g id="XMLID_3954_">
							<path id="XMLID_3955_" style="fill:#263238;" d="M396.792,249.353c0.048,0.613-0.392,1.146-0.983,1.191
								c-0.591,0.044-1.108-0.417-1.155-1.031c-0.048-0.614,0.392-1.146,0.983-1.191
								C396.227,248.278,396.745,248.74,396.792,249.353z"/>
						</g>
						<g id="XMLID_3952_">
							<polygon id="XMLID_3953_" style="fill:#F28F8F;" points="391.939,248.338 392.065,255.325 395.432,254.18 							"/>
						</g>
						<g id="XMLID_3950_">
							<path id="XMLID_3951_" style="fill:#F28F8F;" d="M387.389,263.576c-2.751-0.285-8.435-1.751-9.374-3.957
								c0,0,0.331,1.393,2.055,2.792c1.724,1.398,7.366,2.872,7.366,2.872L387.389,263.576z"/>
						</g>
					</g>
				</g>
			</g>
		</g>
		<g id="XMLID_3924_">
			<g id="XMLID_3935_">
				<path id="XMLID_103_" style="fill:#EBEBEB;" d="M369.318,343.422v0.805c0,0.812,0.434,1.565,1.134,1.97l21.682,12.477
					c0.35,0.203,0.745,0.302,1.139,0.302c0.39,0,0.784-0.099,1.135-0.302l39.774-22.963c0.705-0.406,1.138-1.159,1.138-1.971v-0.553
					l-42.047,24.276L369.318,343.422z"/>
			</g>
			<g id="XMLID_3934_">
				<path id="XMLID_3968_" style="fill:#FAFAFA;" d="M435.32,333.187l-23.583-13.614c-0.42-0.242-0.936-0.242-1.355,0
					l-40.913,23.624c-0.201,0.116-0.201,0.406,0,0.522l23.805,13.746L435.32,333.187z"/>
			</g>
			<path id="XMLID_47_" style="fill:#FFA8A7;" d="M408.155,299.02c3.165,4.61,10.352,14.627,13.586,20.372
				c1.863,3.31-0.48,6.522-5.564,5.161c-3.348-0.896-8.155-8.921-12.821-14.362"/>
			<g id="XMLID_3933_">
				<polygon id="XMLID_3947_" style="fill:#E0E0E0;" points="393.056,355.462 380.336,348.126 417.529,326.652 430.316,333.95 				
					"/>
			</g>
			<g id="XMLID_3932_">
				<polygon id="XMLID_3946_" style="fill:#E0E0E0;" points="386.804,335.054 387.039,335.19 393.273,338.789 404.36,332.387 
					404.591,332.256 398.122,328.522 				"/>
			</g>
			<g id="XMLID_3930_">
				<polygon id="XMLID_3944_" style="fill:#E6E6E6;" points="387.039,335.19 393.273,338.789 404.36,332.387 398.122,328.788 				
					"/>
			</g>
			<g id="XMLID_3929_">
				<path id="XMLID_3943_" style="fill:#EBEBEB;" d="M393.273,357.464v1.513c0.39,0,0.784-0.099,1.135-0.302l39.774-22.963
					c0.705-0.406,1.138-1.159,1.138-1.971v-0.553L393.273,357.464z"/>
			</g>
			<g id="XMLID_3928_" style="opacity:0.5;">
				<path id="XMLID_3942_" style="fill:#E0E0E0;" d="M393.273,357.464v1.513c0.39,0,0.784-0.099,1.135-0.302l39.774-22.963
					c0.705-0.406,1.138-1.159,1.138-1.971v-0.553L393.273,357.464z"/>
			</g>
			<g id="XMLID_3927_">
				<path id="XMLID_3940_" style="fill:#27DEBF;" d="M393.914,357.799c0.753,0.291,1.608,0.235,2.321-0.179l39.599-22.863
					c0.697-0.402,1.174-1.091,1.31-1.883l4.336-25.853c0.024-0.147,0.036-0.295,0.036-0.442c0-0.72-0.287-1.409-0.796-1.915
					l-41.152,23.763c-0.514,0.299-0.868,0.808-0.967,1.393L393.914,357.799z"/>
			</g>
			<g id="XMLID_13_" style="opacity:0.7;">
				<path id="XMLID_48_" style="fill:#FFFFFF;" d="M393.914,357.799c0.753,0.291,1.608,0.235,2.321-0.179l39.599-22.863
					c0.697-0.402,1.174-1.091,1.31-1.883l4.336-25.853c0.024-0.147,0.036-0.295,0.036-0.442c0-0.72-0.287-1.409-0.796-1.915
					l-41.152,23.763c-0.514,0.299-0.868,0.808-0.967,1.393L393.914,357.799z"/>
			</g>
			<g id="XMLID_3926_">
				<path id="XMLID_3939_" style="fill:#FAFAFA;" d="M393.273,357.465l0.271,0.155c0.12,0.068,0.243,0.127,0.37,0.179l4.686-27.979
					c0.1-0.585,0.454-1.095,0.967-1.393l41.152-23.763c-0.159-0.159-0.346-0.299-0.549-0.418l-41.235,23.807
					c-0.514,0.299-0.868,0.808-0.967,1.393L393.273,357.465z"/>
			</g>
			<g id="XMLID_3925_">
				<path id="XMLID_3937_" style="fill:#27DEBF;" d="M416.217,333.934c0.29-1.731,2.077-4.03,3.991-5.135
					c1.914-1.105,3.23-0.598,2.94,1.133c-0.29,1.731-2.077,4.03-3.991,5.135C417.243,336.172,415.926,335.664,416.217,333.934z"/>
			</g>
		</g>
		<g id="XMLID_3922_">
			<path id="XMLID_3936_" style="fill:#FFA8A7;" d="M372.702,338.738c-2.178-1.498-16.077-11.603-21.627-15.906
				c-5.78-4.48-5.424-5.918-4.724-9.152c1.381-6.38,10.135-26.474,12.546-32.427c2.698-6.659,3.322-7.492,8.559-9.775
				c3.623,2.86,5.64,9.867,0.774,19.526l-9.924,23.348c0,0,6.611,7.043,10.519,10.702c3.908,3.659,7.362,7.848,10.281,8.163
				c2.321,0.25,6.431,0.409,7.316,1.225c0.885,0.816,5.144,5.557,5.969,6.919c0.825,1.362,2.797,4.132,0,5.015
				c-2.555,0.807-4.633-0.285-6.707-1.708c-1.335-0.917-2.77-2.288-2.77-2.288s-3.06,0.475-5.991-1.189
				C375.342,340.295,372.702,338.738,372.702,338.738z"/>
		</g>
		<path id="XMLID_646_" style="fill:#263238;" d="M365.344,280.573h0.282c5.935,0,10.705-4.89,10.558-10.823l-0.279-11.248l0,0
			c-5.833,0-10.561,4.728-10.561,10.561V280.573z"/>
	</g>
</g>
<g id="Character_1">
	<g id="Character_4_">
		<path id="XMLID_156_" style="fill:#FFA8A7;" d="M84.633,243.212c-1.051,2.152-4.228,5.272-7.956,1.244
			c-5.45-5.888-14.426-26.799-14.426-26.799l5.9-2.733l12.026,16.427l6.412,7.114"/>
		<path id="XMLID_155_" style="fill:#FFA8A7;" d="M86.218,203.064c-2.824,9.487-8.52,30.624-8.52,30.624l6.936,9.524
			c0,0,1.399-2.557,3.16-7.561c1.161-3.3,5.212-16.475,5.212-16.475s-0.843-19.022,2.127-21.534
			c2.971-2.512,5.454-3.268,5.454-3.268C95.855,194.746,88.805,194.374,86.218,203.064z"/>
		<path id="XMLID_154_" style="fill:#263238;" d="M72.919,204.43c-1.568-2.918-1.956-3.046-2.888-3.686
			c-0.932-0.64-6.652-1.494-9.025-1.694c-2.793-0.236-3.784,0.278-3.007,2.679c1.661,5.139,6.7,16.052,7.829,17.557
			c0.74,0.987,0.892,1.904,4.031,2.21c2.933,0.286,6.611,0.447,7.694,0.512c1.083,0.065,2.58,0.334,1.61-2.851
			c-0.971-3.185-3.261-8.358-4.287-10.585C73.668,205.953,72.919,204.43,72.919,204.43z"/>
		<path id="XMLID_153_" style="fill:#FFA8A7;" d="M62.252,217.658c-1.171-5.156-4.598-9.917-2.662-11.661l1.041,2.281
			c0,0,6.418,1.539,9.518,1.302c3.1-0.237,5.634-0.972,6.482-0.375c1.799,1.267,2.315,6.669-2.838,8.631
			C69.411,219.503,62.252,217.658,62.252,217.658z"/>
		<path id="XMLID_152_" style="fill:#27DEBF;" d="M101.035,192.684c-5.68,0.059-11.935,2.124-14.087,6.578
			c-2.152,4.454-6.157,20.701-6.157,20.701s4.341,4.636,12.304,4.118L101.035,192.684z"/>
		<path id="XMLID_151_" style="opacity:0.1;" d="M101.035,192.684c-5.68,0.059-11.935,2.124-14.087,6.578
			c-2.152,4.454-6.157,20.701-6.157,20.701s4.341,4.636,12.304,4.118L101.035,192.684z"/>
		<g id="XMLID_23_">
			<g id="XMLID_25_">
				<g id="XMLID_26_">
					<rect id="XMLID_149_" x="117.817" y="356.677" style="fill:#FFA8A7;" width="7.856" height="11.441"/>
					
						<rect id="XMLID_148_" x="90.386" y="342.649" transform="matrix(0.9994 -0.0344 0.0344 0.9994 -11.9216 3.4486)" style="fill:#FFA8A7;" width="7.856" height="11.44"/>
					<path id="XMLID_143_" style="fill:#37474F;" d="M125.158,244.995c0,7.502,0.97,56.031,0.97,56.031
						c0.183,2.159,2.207,6.138,1.769,14.429c-0.595,11.262-1.568,42.549-1.568,42.549s-3.684,3.652-8.885,0
						c0,0-7.113-42.51-8.521-53.671c-1.229-9.741-3.313-36.202-3.313-36.202l-4.001,31.764c0,0,1.281,7.322,1.563,12.49
						c0.281,5.168-4.612,34.401-4.612,34.401s-3.993,2.76-8.548,0.326c0,0-3.033-42.996-3.843-47.663
						c-0.81-4.668,2.245-54.453,2.245-54.453H125.158z"/>
					<path id="XMLID_138_" style="fill:#EBEBEB;" d="M113.332,193.04c0.917,0.222,8.493,1.996,11.826,3.13v25.579v23.247
						c-5.509,5.993-24.714,8.785-36.744,0c0,0,0-32.176,0-38.295c0-6.119,3.4-13.47,12.787-14.016L113.332,193.04z"/>
					<g id="XMLID_41_">
						<g id="XMLID_118_">
							<path id="XMLID_133_" style="fill:#263238;" d="M115.976,161.722c0,0,1.946-0.334,3.464,1.218
								c1.488,1.521,1.179,4.338-0.003,10.809l-4.597,0.528L115.976,161.722z"/>
							<path id="XMLID_129_" style="fill:#263238;" d="M89.168,159.851c0,0-1.857,0.001-2.876-0.584
								c-1.411-0.811-1.78,0.793-1.006,2.187c0.773,1.394,2.218,3.209,5.335,3.553c0.042-0.2,1.32-3.591,1.32-3.591L89.168,159.851z
								"/>
							<path id="XMLID_128_" style="fill:#FFA8A7;" d="M113.819,174.28c0.683,0.408,1.657-0.904,2.498-1.785
								c0.842-0.881,3.59-2.084,4.961,0.804c1.397,2.944-1.21,6.833-3.374,7.512c-3.729,1.17-4.288-1.221-4.288-1.221l-0.285,13.449
								c0,0-2.441,5.974-9.052,6.87c-6.611,0.896-5.25-4.554-3.078-7.225l0.01-4.093c0,0-3.378,0.513-5.026,0.258
								c-2.742-0.424-4.467-2.587-5.299-5.555c-1.336-4.767-1.843-8.617-0.71-17.992c1.242-10.276,13.195-10.383,19.649-6.321
								C116.281,163.043,113.819,174.28,113.819,174.28z"/>
							<path id="XMLID_127_" style="fill:#263238;" d="M113.819,175.428c0.344,0.007,1.649-2.16,2.498-2.933
								c1.177-1.071-0.341-10.773-0.341-10.773s1.191-3.68-1.136-6.12c-2.327-2.44-6.836-2.029-10.133-2.147
								c-3.431-0.124-7.104-0.331-11.787-2.365c-4.683-2.034-5.033-2.275-5.614-0.218c-0.581,2.057-0.8,6.766,1.995,9.923
								l2.325,0.855c0,0,1.256,1.114,5.623,1.646c4.368,0.532,11.171-0.102,12.101-0.229c1.267-0.173,1.537,1.054,2.22,4.408
								C112.168,170.417,112.666,175.406,113.819,175.428z"/>
							<path id="XMLID_125_" style="fill:#263238;" d="M115.97,162.477l4.127-2.216c-0.586-1.183-1.985-1.645-3.124-1.033
								C115.833,159.84,115.384,161.294,115.97,162.477z"/>
							<path id="XMLID_123_" style="fill:#F28F8F;" d="M101.212,188.591c0,0,6.121-1.233,8.261-2.371
								c1.432-0.761,2.612-2.081,2.958-2.927c0,0-0.401,1.816-1.681,3.452c-1.565,2.001-9.538,3.474-9.538,3.474L101.212,188.591z"
								/>
						</g>
						<g id="XMLID_42_">
							<path id="XMLID_117_" style="fill:#263238;" d="M102.683,172.749c0,0.704,0.549,1.273,1.227,1.271
								c0.678-0.002,1.227-0.574,1.227-1.278c0-0.704-0.549-1.273-1.227-1.271C103.232,171.474,102.683,172.046,102.683,172.749z"/>
							<path id="XMLID_114_" style="fill:#263238;" d="M103.984,168.119l2.624,1.448c0.387-0.754,0.113-1.689-0.612-2.089
								C105.272,167.078,104.371,167.365,103.984,168.119z"/>
							<path id="XMLID_102_" style="fill:#F28F8F;" d="M101.766,181.223l-2.8,1.051c0.277,0.803,1.129,1.218,1.902,0.928
								C101.641,182.911,102.043,182.025,101.766,181.223z"/>
							<path id="XMLID_79_" style="fill:#263238;" d="M91.745,169.14l2.393-1.843c-0.488-0.685-1.419-0.828-2.08-0.319
								C91.397,167.486,91.257,168.454,91.745,169.14z"/>
							<path id="XMLID_45_" style="fill:#263238;" d="M92.481,172.4c0,0.704,0.549,1.273,1.227,1.271
								c0.677-0.002,1.227-0.574,1.227-1.278c0-0.704-0.549-1.273-1.227-1.271C93.031,171.124,92.481,171.696,92.481,172.4z"/>
							<polygon id="XMLID_43_" style="fill:#F28F8F;" points="98.73,171.237 98.328,178.613 94.477,177.301 							"/>
						</g>
					</g>
					<path id="XMLID_39_" style="fill:#263238;" d="M117.817,364.24v-1.123c-0.752,0.327-2.498,6.991-5.615,9.834
						c-2.478,2.26-5.858,4.871-6.718,7.39c-0.894,2.621,4.707,4.067,7.022,3.658c2.69-0.476,7.352-2.37,8.523-4.126
						c1.17-1.756,1.718-4.346,2.669-5.633c0.951-1.287,3.143-2.723,3.658-4.213c0.283-0.818-0.053-2.61-0.45-4.124
						c-0.364-1.389-0.759-2.916-1.233-2.786c-0.001,0.169,0,0.856,0,0.856c-0.571,0.632-2.148,1.259-3.928,1.328
						C120.596,365.344,117.808,365.116,117.817,364.24z"/>
					<path id="XMLID_27_" style="fill:#263238;" d="M90.501,351.799c-0.408,0.014-0.74,0.589-1.64,1.563
						c-1.087,1.177-2.866,2.447-4.621,3.325c-2.942,1.473-8.661,3.738-11.249,4.904c-1.617,0.728-1.541,2.681,0.13,3.793
						c1.672,1.111,5.707,1.912,10.552,0.829c2.64-0.591,6.076-3.028,8.251-2.897c2.175,0.132,6.245,0.1,7.85-1.006
						c1.606-1.106,0.963-3.47,0.509-5.501c-0.495-2.216-1.204-5.608-1.938-5.456l0.024,0.697c-0.945,1.43-5.753,2.014-7.828,0.961
						L90.501,351.799z"/>
				</g>
			</g>
		</g>
		<path id="XMLID_6_" style="fill:#FFA8A7;" d="M139.598,239.5c0.488-2.365-4.794-25.791-6.869-33.197l-9.169,10.713l5.643,23.12
			c-0.086,1.57-2.597,13.612-4.606,19.084c-0.356,0.969-1.08,1.757-1.991,2.244c-2.442,1.307-3.489,2.748-5.378,4.477
			c-1.479,1.353-2.68,1.634-2.529,2.106c0.194,0.607,1.115,1.631,2.843,1.229c0.87-0.202,2.015-0.795,3.447-1.579
			c0,0-1.175,2.813-3.8,5.621c-3.557,3.806-3.869,6.27,2.761,6.777c4.154,0.318,7.644-2.022,11.39-10.97
			c1.079-2.578,2.437-6.326,3.457-9.718C137.208,251.387,138.47,244.962,139.598,239.5z"/>
		<path id="XMLID_5_" style="fill:#27DEBF;" d="M120.443,210.282c-2.499-5.739-1.253-12.46,1.518-15.068
			c7.049,1.207,8.831,4.535,10.767,11.089c2.982,10.099,4.49,16.655,4.49,16.655c-1.755,2.347-8.765,5.066-12.06,4.064
			L120.443,210.282z"/>
		<path id="XMLID_4_" style="opacity:0.1;" d="M120.443,210.282c-2.499-5.739-1.253-12.46,1.518-15.068
			c7.049,1.207,8.831,4.535,10.767,11.089c2.982,10.099,4.49,16.655,4.49,16.655c-1.755,2.347-8.765,5.066-12.06,4.064
			L120.443,210.282z"/>
		<polygon id="XMLID_2_" style="opacity:0.1;" points="125.158,227.022 121.962,215.673 125.158,237.019 		"/>
		<path id="XMLID_1_" style="fill:#263238;" d="M105.61,268.13c0,0-6.279-1.769-10.939-6.272c0,0,2.111,3.952,8.388,7.63
			l-0.341,21.605L105.61,268.13z"/>
	</g>
</g>
</svg>
